<?xml version="1.0" encoding="UTF-8"?>
<svg width="512" height="512" viewBox="0 0 512 512" fill="none" xmlns="http://www.w3.org/2000/svg">
  <rect width="512" height="512" rx="128" fill="url(#gradient-bg)"/>
  <path d="M156 256C156 206.294 196.294 166 246 166H266C315.706 166 356 206.294 356 256C356 305.706 315.706 346 266 346H246C196.294 346 156 305.706 156 256Z" fill="white"/>
  <path d="M246 166C196.294 166 156 206.294 156 256C156 305.706 196.294 346 246 346C295.706 346 336 305.706 336 256C336 206.294 295.706 166 246 166ZM246 316C212.863 316 186 289.137 186 256C186 222.863 212.863 196 246 196C279.137 196 306 222.863 306 256C306 289.137 279.137 316 246 316Z" fill="url(#gradient-cs)"/>
  <defs>
    <linearGradient id="gradient-bg" x1="0" y1="0" x2="512" y2="512" gradientUnits="userSpaceOnUse">
      <stop offset="0%" stop-color="#3B82F6"/>
      <stop offset="50%" stop-color="#8B5CF6"/>
      <stop offset="100%" stop-color="#EC4899"/>
    </linearGradient>
    <linearGradient id="gradient-cs" x1="156" y1="166" x2="356" y2="346" gradientUnits="userSpaceOnUse">
      <stop offset="0%" stop-color="#3B82F6"/>
      <stop offset="50%" stop-color="#8B5CF6"/>
      <stop offset="100%" stop-color="#EC4899"/>
    </linearGradient>
  </defs>
</svg>
